<svg width="300" height="305" viewBox="0 0 300 305" fill="none" xmlns="http://www.w3.org/2000/svg">
<mask id="mask0_1_358" style="mask-type:alpha" maskUnits="userSpaceOnUse" x="0" y="0" width="300" height="301">
<g clip-path="url(#clip0_1_358)">
<path d="M101.604 1.2905C100.827 -0.00454962 98.9502 -0.00454867 98.1735 1.2905L79.3114 32.739C78.7979 33.5951 77.7319 33.9414 76.8133 33.5507L43.0685 19.1952C41.6789 18.604 40.1605 19.7072 40.2933 21.2114L43.5185 57.7407C43.6063 58.7351 42.9475 59.6419 41.9746 59.8657L6.23653 68.0865C4.76484 68.4251 4.18487 70.21 5.17651 71.349L29.2572 99.0061C29.9127 99.7589 29.9127 100.88 29.2572 101.633L5.17651 129.29C4.18487 130.429 4.76484 132.214 6.23654 132.552L41.9746 140.773C42.9475 140.997 43.6063 141.904 43.5185 142.898L40.2933 179.427C40.1605 180.932 41.6789 182.035 43.0685 181.444L76.8133 167.088C77.7319 166.697 78.7979 167.044 79.3114 167.9L98.1735 199.348C98.9502 200.644 100.827 200.643 101.604 199.348L120.466 167.9C120.979 167.044 122.045 166.697 122.964 167.088L156.709 181.444C158.098 182.035 159.617 180.932 159.484 179.427L156.259 142.898C156.171 141.904 156.83 140.997 157.803 140.773L193.541 132.552C195.012 132.214 195.592 130.429 194.601 129.29L170.52 101.633C169.865 100.88 169.865 99.7589 170.52 99.0061L194.601 71.349C195.592 70.21 195.012 68.4251 193.541 68.0865L157.803 59.8657C156.83 59.6419 156.171 58.7351 156.259 57.7407L159.484 21.2114C159.617 19.7072 158.098 18.604 156.709 19.1952L122.964 33.5507C122.045 33.9414 120.979 33.5951 120.466 32.739L101.604 1.2905ZM100 150.431C127.614 150.431 150 128.045 150 100.431C150 72.8165 127.614 50.4308 100 50.4308C72.3859 50.4308 50.0001 72.8165 50.0001 100.431C50.0001 128.045 72.3859 150.431 100 150.431Z" fill="black"/>
</g>
</mask>
<g mask="url(#mask0_1_358)">
<g filter="url(#filter0_b_1_358)">
<rect width="300" height="304" transform="translate(0 0.430908)" fill="url(#paint0_linear_1_358)"/>
</g>
</g>
<defs>
<filter id="filter0_b_1_358" x="-4" y="-3.56909" width="608" height="312" filterUnits="userSpaceOnUse" color-interpolation-filters="sRGB">
<feFlood flood-opacity="0" result="BackgroundImageFix"/>
<feGaussianBlur in="BackgroundImageFix" stdDeviation="2"/>
<feComposite in2="SourceAlpha" operator="in" result="effect1_backgroundBlur_1_358"/>
<feBlend mode="normal" in="SourceGraphic" in2="effect1_backgroundBlur_1_358" result="shape"/>
</filter>
<linearGradient id="paint0_linear_1_358" x1="0" y1="304" x2="303.973" y2="4.02631" gradientUnits="userSpaceOnUse">
<stop/>
<stop offset="1" stop-color="#252422"/>
</linearGradient>
<clipPath id="clip0_1_358">
<rect width="300" height="300.112" fill="white" transform="translate(0 0.319214)"/>
</clipPath>
</defs>
</svg>
